<svg width="1672" height="375" viewBox="0 0 1672 375" fill="none" xmlns="http://www.w3.org/2000/svg">
<rect width="1297" height="375" transform="translate(375)" fill="black"/>
<rect x="387" y="12" width="1273" height="351" fill="white"/>
<path d="M504.17 195.632L485.317 215.627V267.5H456.41V101.141H485.317V179.179L501.313 159.412L549.987 101.141H584.95L523.137 174.837L588.492 267.5H554.215L504.17 195.632ZM604.031 267.5V101.141H661.046C679.86 101.141 694.181 104.911 704.007 112.452C713.833 119.993 718.746 131.229 718.746 146.158C718.746 153.775 716.689 160.631 712.576 166.725C708.463 172.818 702.445 177.541 694.523 180.893C703.512 183.33 710.443 187.938 715.318 194.718C720.27 201.421 722.745 209.495 722.745 218.94C722.745 234.556 717.718 246.553 707.663 254.932C697.685 263.311 683.364 267.5 664.702 267.5H604.031ZM632.938 192.433V244.42H665.045C674.109 244.42 681.193 242.173 686.297 237.679C691.4 233.185 693.952 226.938 693.952 218.94C693.952 201.649 685.116 192.813 667.444 192.433H632.938ZM632.938 171.181H661.274C670.263 171.181 677.271 169.162 682.298 165.125C687.401 161.012 689.953 155.223 689.953 147.758C689.953 139.531 687.592 133.59 682.869 129.934C678.223 126.277 670.948 124.449 661.046 124.449H632.938V171.181ZM868.652 124.449H816.779V267.5H788.101V124.449H736.685V101.141H868.652V124.449ZM1012.27 101.141V212.313C1012.27 229.985 1006.6 244.001 995.25 254.36C983.977 264.644 968.933 269.785 950.118 269.785C931.075 269.785 915.955 264.72 904.758 254.589C893.561 244.382 887.962 230.252 887.962 212.199V101.141H916.755V212.428C916.755 223.549 919.573 232.042 925.21 237.907C930.847 243.772 939.149 246.705 950.118 246.705C972.36 246.705 983.481 234.975 983.481 211.514V101.141H1012.27ZM1075.34 113.823V143.873H1097.17V164.439H1075.34V233.451C1075.34 238.174 1076.26 241.602 1078.09 243.734C1079.99 245.791 1083.34 246.819 1088.14 246.819C1091.34 246.819 1094.58 246.438 1097.85 245.677V267.157C1091.53 268.909 1085.44 269.785 1079.57 269.785C1058.24 269.785 1047.58 258.017 1047.58 234.479V164.439H1027.24V143.873H1047.58V113.823H1075.34ZM1227.08 229.224L1246.73 143.873H1273.81L1240.1 267.5H1217.25L1190.75 182.606L1164.69 267.5H1141.84L1108.02 143.873H1135.1L1155.1 228.31L1180.46 143.873H1201.37L1227.08 229.224ZM1346.82 269.785C1329.23 269.785 1314.94 264.263 1303.97 253.218C1293.08 242.097 1287.64 227.319 1287.64 208.886V205.458C1287.64 193.118 1290 182.111 1294.72 172.438C1299.52 162.688 1306.22 155.108 1314.83 149.7C1323.44 144.292 1333.03 141.588 1343.62 141.588C1360.46 141.588 1373.44 146.958 1382.58 157.698C1391.8 168.438 1396.41 183.635 1396.41 203.287V214.484H1315.63C1316.47 224.691 1319.86 232.766 1325.8 238.707C1331.82 244.648 1339.36 247.619 1348.42 247.619C1361.14 247.619 1371.5 242.478 1379.5 232.194L1394.47 246.477C1389.52 253.865 1382.89 259.616 1374.59 263.729C1366.36 267.767 1357.1 269.785 1346.82 269.785ZM1343.51 163.868C1335.89 163.868 1329.72 166.534 1325 171.866C1320.35 177.198 1317.38 184.625 1316.09 194.146H1368.99V192.09C1368.38 182.797 1365.9 175.789 1361.56 171.066C1357.22 166.268 1351.2 163.868 1343.51 163.868ZM1472.5 269.785C1454.91 269.785 1440.63 264.263 1429.66 253.218C1418.77 242.097 1413.32 227.319 1413.32 208.886V205.458C1413.32 193.118 1415.68 182.111 1420.4 172.438C1425.2 162.688 1431.91 155.108 1440.51 149.7C1449.12 144.292 1458.72 141.588 1469.31 141.588C1486.14 141.588 1499.13 146.958 1508.27 157.698C1517.48 168.438 1522.09 183.635 1522.09 203.287V214.484H1441.31C1442.15 224.691 1445.54 232.766 1451.48 238.707C1457.5 244.648 1465.04 247.619 1474.1 247.619C1486.83 247.619 1497.18 242.478 1505.18 232.194L1520.15 246.477C1515.2 253.865 1508.57 259.616 1500.27 263.729C1492.04 267.767 1482.79 269.785 1472.5 269.785ZM1469.19 163.868C1461.57 163.868 1455.4 166.534 1450.68 171.866C1446.04 177.198 1443.06 184.625 1441.77 194.146H1494.67V192.09C1494.06 182.797 1491.59 175.789 1487.24 171.066C1482.9 166.268 1476.88 163.868 1469.19 163.868ZM1578.54 113.823V143.873H1600.36V164.439H1578.54V233.451C1578.54 238.174 1579.45 241.602 1581.28 243.734C1583.18 245.791 1586.53 246.819 1591.33 246.819C1594.53 246.819 1597.77 246.438 1601.04 245.677V267.157C1594.72 268.909 1588.63 269.785 1582.76 269.785C1561.44 269.785 1550.77 258.017 1550.77 234.479V164.439H1530.43V143.873H1550.77V113.823H1578.54Z" fill="black"/>
<rect width="375" height="375" fill="black"/>
<path d="M170.645 198.903C170.645 198.903 183.032 203.548 208.854 196.371C234.676 189.193 236.966 172.3 236.966 172.3C223.474 175.81 213.541 166.159 213.541 166.159L224.709 162.334C245.015 160.934 269.856 143.538 274.396 140.595C278.937 137.651 286.247 127.371 274.075 129.873C261.903 132.376 248.935 127.652 248.935 127.652L256.697 122.772C293.817 106.448 302.39 86.8472 297.054 82.5644C291.718 78.2817 276.266 88.8706 276.266 88.8706C110.547 162.063 76.7239 287.015 76.7239 287.015C76.7239 287.015 74.7894 293.281 82.8531 293.83C90.9167 294.379 90.2874 243.522 170.645 198.903Z" stroke="white" stroke-width="20" stroke-miterlimit="10" stroke-linecap="round" stroke-linejoin="round"/>
<path d="M76 160V104.965C76 88.4158 89.4665 75 106.078 75H161" stroke="white" stroke-width="20" stroke-miterlimit="10" stroke-linecap="round" stroke-linejoin="round"/>
<path d="M299 213V267.924C299 284.535 285.603 298 269.077 298H211" stroke="white" stroke-width="20" stroke-miterlimit="10" stroke-linecap="round" stroke-linejoin="round"/>
</svg>
