<svg width="1672" height="375" viewBox="0 0 1672 375" fill="none" xmlns="http://www.w3.org/2000/svg">
<rect width="1297" height="375" transform="translate(375)" fill="black"/>
<rect x="387" y="12" width="1273" height="351" fill="white"/>
<path d="M565.875 276H534.375V94H565.875V276ZM732.5 119.5H675.75V276H644.375V119.5H588.125V94H732.5V119.5ZM917.625 198.875H844.375V276H812.75V94H928.375V119.5H844.375V173.625H917.625V198.875ZM942.125 207.125C942.125 193.875 944.75 181.958 950 171.375C955.25 160.708 962.625 152.542 972.125 146.875C981.625 141.125 992.542 138.25 1004.88 138.25C1023.12 138.25 1037.92 144.125 1049.25 155.875C1060.67 167.625 1066.83 183.208 1067.75 202.625L1067.88 209.75C1067.88 223.083 1065.29 235 1060.12 245.5C1055.04 256 1047.71 264.125 1038.12 269.875C1028.62 275.625 1017.62 278.5 1005.12 278.5C986.042 278.5 970.75 272.167 959.25 259.5C947.833 246.75 942.125 229.792 942.125 208.625V207.125ZM972.5 209.75C972.5 223.667 975.375 234.583 981.125 242.5C986.875 250.333 994.875 254.25 1005.12 254.25C1015.38 254.25 1023.33 250.25 1029 242.25C1034.75 234.25 1037.62 222.542 1037.62 207.125C1037.62 193.458 1034.67 182.625 1028.75 174.625C1022.92 166.625 1014.96 162.625 1004.88 162.625C994.958 162.625 987.083 166.583 981.25 174.5C975.417 182.333 972.5 194.083 972.5 209.75ZM1164.38 168.5C1160.38 167.833 1156.25 167.5 1152 167.5C1138.08 167.5 1128.71 172.833 1123.88 183.5V276H1093.5V140.75H1122.5L1123.25 155.875C1130.58 144.125 1140.75 138.25 1153.75 138.25C1158.08 138.25 1161.67 138.833 1164.5 140L1164.38 168.5ZM1265.5 262.75C1256.58 273.25 1243.92 278.5 1227.5 278.5C1212.83 278.5 1201.71 274.208 1194.12 265.625C1186.62 257.042 1182.88 244.625 1182.88 228.375V140.75H1213.25V228C1213.25 245.167 1220.38 253.75 1234.62 253.75C1249.38 253.75 1259.33 248.458 1264.5 237.875V140.75H1294.88V276H1266.25L1265.5 262.75ZM1354.38 140.75L1355.25 154.875C1364.75 143.792 1377.75 138.25 1394.25 138.25C1412.33 138.25 1424.71 145.167 1431.38 159C1441.21 145.167 1455.04 138.25 1472.88 138.25C1487.79 138.25 1498.88 142.375 1506.12 150.625C1513.46 158.875 1517.21 171.042 1517.38 187.125V276H1487V188C1487 179.417 1485.12 173.125 1481.38 169.125C1477.62 165.125 1471.42 163.125 1462.75 163.125C1455.83 163.125 1450.17 165 1445.75 168.75C1441.42 172.417 1438.38 177.25 1436.62 183.25L1436.75 276H1406.38V187C1405.96 171.083 1397.83 163.125 1382 163.125C1369.83 163.125 1361.21 168.083 1356.12 178V276H1325.75V140.75H1354.38Z" fill="black"/>
<rect width="375" height="375" fill="black"/>
<path d="M185.976 48.8601C109.534 48.8601 47.5 110.894 47.5 187.336C47.5 197.662 48.9507 208.481 51.1389 217.971L55.7859 238.084L63.1375 218.807C89.6918 149.398 143.39 90.9781 215.997 63.8338L235.617 56.5068L215.21 51.8106C205.572 49.5731 196.007 48.8601 185.976 48.8601ZM185.976 61.4488C187.23 61.4488 188.262 61.7684 189.492 61.793C131.195 89.9209 87.6019 138.382 61.023 195.105C60.8263 192.45 60.0887 189.893 60.0887 187.336C60.0887 117.68 116.32 61.4488 185.976 61.4488ZM262.196 71.923L259.344 72.7589C222.807 83.5036 114.697 125.843 71.448 261.245L70.4645 264.318L72.3823 266.9C80.2011 277.571 88.9788 287.849 100.166 296.061L107.173 301.199L109.853 292.963C154.307 157.61 256.344 120.065 291.16 111.336L300.675 108.976L294.553 101.305C285.825 90.4372 276.26 81.5858 264.655 73.6195L262.196 71.923ZM259.737 86.0361C266.622 91.0027 272.277 96.8053 277.834 102.78C235.839 115.32 145.849 156.675 101.494 280.374C95.396 274.94 89.8147 268.867 84.676 262.081C126.056 137.079 223.545 97.1249 259.737 86.0361ZM311.371 128.08L305.789 129.875C185.582 168.281 141.374 269.9 129.204 307.863L127.384 313.444L132.867 315.608C143.612 319.91 155.266 323.598 167.855 325.074L172.674 325.639L174.444 321.115C186.59 290.061 225.291 213.152 319.14 175.067L323.566 173.272L323.001 168.526C321.525 155.938 317.862 144.259 313.559 133.514L311.371 128.08ZM303.552 144.357C306.06 151.34 308.174 158.446 309.404 165.871C218.873 204.768 179.386 277.006 165.126 311.452C157.749 310.223 150.644 308.108 143.685 305.625C156.938 267.392 198.22 180.968 303.552 144.357ZM324.918 195.007L313.952 200.49C300.774 207.079 280.833 219.963 253.345 245.337L253.32 245.362L253.271 245.386C222.143 275.137 207.022 300.118 200.359 315.657L195.86 326.131L207.145 324.336C224.283 321.607 241.051 315.927 255.951 307.199L327.5 321.509L324.156 311.256C324.156 311.256 312.526 275.875 306.011 256.869C314.69 241.797 320.271 224.069 322.976 207.104L324.918 195.007ZM307.043 219.496C303.97 231.617 299.938 243.542 293.938 253.254L292.365 255.787L293.324 258.639C298.413 273.342 305.519 295.053 308.74 304.937L254.009 293.971L251.894 295.298C242.035 301.396 230.7 305.379 219.021 308.428C226.692 294.536 238.568 276.858 261.901 254.582L261.926 254.533C281.497 236.51 295.537 226.626 307.043 219.496Z" fill="white"/>
</svg>
